<?xml version="1.0" standalone="no"?>
<!DOCTYPE svg PUBLIC "-//W3C//DTD SVG 20010904//EN"
 "http://www.w3.org/TR/2001/REC-SVG-20010904/DTD/svg10.dtd">
<svg version="1.0" xmlns="http://www.w3.org/2000/svg"
 width="640.000000pt" height="640.000000pt" viewBox="0 0 640.000000 640.000000"
 preserveAspectRatio="xMidYMid meet">
<metadata>
Created by potrace 1.14, written by Peter Selinger 2001-2017
</metadata>
<g transform="translate(0.000000,640.000000) scale(0.100000,-0.100000)"
fill="#000000" stroke="none">
<path d="M2445 6391 c-3 -5 -1 -12 4 -15 5 -4 12 -2 16 4 9 14 28 13 23 -2 -6
-16 -39 -19 -57 -5 -11 9 -13 9 -8 0 4 -6 3 -14 -3 -18 -5 -3 -10 -1 -10 6 0
8 -3 9 -13 0 -8 -6 -17 -8 -20 -4 -4 3 -7 1 -7 -6 0 -8 -7 -11 -15 -7 -8 3
-15 0 -15 -6 0 -6 -3 -8 -7 -5 -3 4 -12 -1 -20 -11 -8 -9 -12 -11 -8 -4 3 6 2
12 -4 12 -5 0 -11 -5 -13 -11 -3 -9 -9 -9 -25 0 -19 9 -24 8 -37 -11 -9 -12
-16 -19 -16 -14 0 5 -6 3 -13 -3 -8 -6 -17 -8 -20 -4 -4 3 -7 1 -7 -4 0 -6 6
-14 13 -16 9 -4 9 -8 -2 -15 -8 -6 -11 -17 -8 -26 4 -9 2 -16 -4 -16 -6 0 -7
-4 -4 -10 3 -5 1 -10 -5 -10 -6 0 -8 -4 -5 -10 3 -5 2 -10 -3 -10 -5 0 -8 -11
-7 -25 2 -14 0 -27 -4 -30 -4 -2 -7 -18 -6 -35 1 -21 -3 -30 -14 -30 -10 0
-12 -3 -6 -8 10 -6 10 -15 2 -74 -2 -13 1 -28 5 -35 5 -6 5 -14 -2 -18 -7 -4
-7 -12 0 -26 8 -14 7 -19 -2 -19 -9 -1 -9 -4 2 -13 9 -7 14 -20 12 -31 -2 -11
0 -16 7 -12 6 4 11 1 11 -8 0 -8 5 -18 12 -22 7 -5 9 -2 4 7 -4 8 -1 6 8 -5 8
-10 19 -15 25 -11 6 3 11 2 11 -3 0 -5 12 -8 28 -8 15 1 35 -2 46 -7 12 -6 21
-5 26 3 5 9 9 9 14 1 4 -6 3 -11 -3 -11 -6 0 -8 -7 -5 -15 4 -8 10 -15 16 -15
5 0 7 4 3 9 -3 5 -2 12 3 15 4 2 8 -6 8 -19 0 -13 -4 -21 -8 -19 -4 3 -17 7
-29 9 -17 3 -19 2 -9 -10 7 -8 15 -13 18 -12 4 1 7 -2 7 -8 0 -5 -3 -9 -7 -7
-5 1 -8 -1 -9 -5 0 -5 -2 -18 -5 -31 -3 -15 0 -21 7 -17 6 4 8 14 4 24 -5 12
-3 13 5 5 9 -9 8 -18 -3 -35 -10 -17 -14 -44 -12 -88 2 -41 0 -59 -6 -50 -5 8
-9 10 -9 5 0 -6 10 -21 23 -35 12 -14 15 -20 5 -13 -11 9 -18 10 -23 2 -3 -5
-1 -10 4 -10 6 0 11 -5 11 -11 0 -5 -6 -7 -12 -3 -7 4 -4 -3 7 -16 11 -13 15
-20 8 -17 -6 4 -14 3 -18 -3 -3 -5 -2 -10 4 -10 11 0 9 -19 -3 -39 -6 -10 -5
-12 2 -7 7 4 12 3 12 -3 0 -5 -5 -13 -10 -16 -7 -4 -7 -12 0 -24 5 -10 6 -21
3 -25 -4 -3 -7 -17 -8 -31 -1 -23 7 -30 28 -26 5 1 6 -3 2 -9 -3 -6 -10 -8
-15 -5 -4 3 -10 -2 -14 -10 -3 -8 -2 -15 2 -15 4 0 8 -9 8 -19 0 -11 -4 -17
-8 -15 -4 3 -8 0 -8 -5 0 -6 6 -11 13 -11 9 0 8 -3 -2 -9 -11 -7 -11 -9 0 -14
9 -4 10 -8 4 -14 -5 -4 -10 -15 -10 -23 0 -8 5 -19 10 -23 6 -6 5 -10 -3 -14
-10 -4 -10 -8 0 -21 11 -13 11 -14 0 -8 -11 7 -11 4 0 -13 8 -13 16 -17 22
-11 6 6 15 10 20 10 6 0 4 -5 -4 -10 -13 -9 -13 -11 0 -20 8 -5 10 -10 4 -10
-8 0 -12 -24 -13 -65 -2 -86 -2 -87 -22 -107 -15 -14 -18 -14 -23 -2 -3 9 -10
12 -16 9 -6 -4 -7 -11 -4 -17 5 -7 2 -8 -6 -3 -10 6 -12 4 -6 -10 6 -18 6 -18
-15 1 l-22 19 13 -25 c13 -24 12 -24 -5 -10 -17 14 -18 13 -12 -20 5 -28 4
-31 -4 -17 -10 18 -12 18 -26 -2 -8 -12 -19 -18 -26 -14 -7 4 -6 0 2 -10 11
-14 11 -17 0 -18 -8 0 -5 -4 6 -9 18 -8 18 -9 2 -9 -10 -1 -16 -5 -12 -10 3
-5 1 -12 -4 -15 -6 -4 -6 -18 -1 -36 5 -17 7 -30 4 -30 -3 0 0 -9 6 -20 8 -15
8 -20 -2 -20 -8 0 -6 -5 5 -11 9 -6 14 -15 11 -21 -4 -6 -3 -8 4 -5 17 11 41
-3 35 -21 -5 -12 -2 -14 11 -9 9 4 15 3 12 -1 -2 -4 -1 -14 5 -22 5 -10 9 -11
9 -3 0 7 7 10 15 7 8 -4 12 -11 9 -16 -4 -6 2 -6 14 1 18 10 20 8 18 -23 -1
-27 2 -32 11 -24 9 7 8 -1 -3 -27 -8 -20 -11 -34 -5 -31 5 4 12 2 16 -4 3 -5
0 -10 -7 -10 -10 0 -14 -13 -13 -42 1 -24 -3 -49 -9 -57 -12 -15 -11 -18 7
-39 8 -10 7 -16 -4 -23 -12 -8 -12 -10 0 -18 25 -16 -19 -27 -106 -27 -46 1
-83 -2 -83 -7 0 -4 -13 -6 -29 -5 -16 1 -37 -4 -47 -12 -15 -12 -16 -12 -9 -1
6 10 4 12 -6 6 -12 -8 -41 -14 -76 -17 -7 -1 -13 -5 -13 -10 0 -5 -9 -6 -20
-3 -13 4 -20 2 -20 -7 0 -11 -2 -11 -9 0 -6 11 -10 10 -15 -4 -6 -16 -8 -16
-16 -4 -7 10 -10 11 -10 2 0 -6 -3 -11 -7 -11 -19 3 -34 -2 -29 -9 3 -5 -2 -9
-10 -9 -9 0 -13 6 -9 16 5 12 2 12 -13 -2 -10 -9 -26 -17 -35 -17 -9 0 -19 -5
-22 -10 -4 -6 -12 -7 -18 -3 -7 4 -6 -1 2 -10 12 -16 12 -17 -5 -10 -10 3 -23
11 -27 17 -5 6 -6 2 -3 -9 7 -27 -8 -54 -17 -30 -5 10 -3 14 5 9 7 -4 8 -3 4
5 -9 14 -26 5 -26 -14 0 -8 -4 -16 -9 -19 -5 -4 -7 4 -4 16 4 22 3 22 -11 -2
-8 -14 -15 -19 -16 -13 0 9 -11 7 -34 -6 -19 -11 -37 -18 -40 -15 -3 2 -4 1
-1 -3 3 -4 -19 -19 -50 -34 -32 -15 -51 -29 -43 -32 7 -3 3 -6 -9 -6 -13 -1
-23 -6 -23 -12 0 -6 -6 -9 -14 -6 -10 4 -13 0 -11 -14 2 -11 0 -17 -4 -14 -13
7 -54 -32 -46 -45 3 -6 3 -10 -2 -9 -19 3 -34 -2 -29 -10 3 -5 -1 -11 -9 -14
-19 -8 -11 -44 14 -67 12 -9 18 -20 14 -24 -3 -3 1 -6 10 -6 9 0 17 -7 17 -15
0 -9 10 -15 26 -15 14 0 23 -4 19 -10 -3 -5 1 -10 9 -10 9 0 16 -5 16 -11 0
-5 4 -8 9 -4 5 3 13 0 17 -6 4 -8 3 -9 -4 -5 -7 4 -12 3 -12 -3 0 -6 -17 -27
-38 -48 -48 -48 -73 -81 -53 -68 10 5 12 4 7 -3 -4 -7 -13 -12 -19 -12 -16 0
-39 -38 -32 -50 3 -6 -1 -7 -10 -4 -9 4 -15 3 -14 -2 4 -23 -2 -35 -13 -28 -7
4 -10 4 -6 -1 4 -4 2 -17 -4 -29 -7 -11 -11 -24 -10 -29 1 -4 -1 -6 -5 -6 -20
3 -26 -2 -13 -11 12 -8 10 -10 -9 -10 -24 0 -24 0 -5 -15 18 -15 18 -15 0 -8
-16 5 -18 3 -14 -14 3 -11 -1 -28 -8 -38 -9 -12 -14 -14 -14 -5 0 7 -3 10 -6
7 -4 -4 -2 -13 5 -21 9 -11 8 -15 -4 -20 -8 -3 -15 -13 -15 -21 0 -20 -25 -47
-34 -37 -4 3 -4 -1 0 -11 5 -14 2 -16 -12 -11 -17 6 -17 5 1 -10 11 -10 14
-15 8 -11 -8 4 -13 0 -13 -10 0 -10 -5 -13 -12 -9 -8 5 -9 2 -5 -9 3 -10 2
-17 -4 -17 -6 0 -8 -4 -4 -9 3 -5 0 -13 -6 -16 -5 -4 -8 -14 -4 -22 5 -14 3
-14 -12 -2 -9 8 -14 9 -10 2 4 -6 3 -14 -3 -18 -5 -3 -10 -17 -10 -31 0 -13
-4 -24 -10 -24 -5 0 -10 -9 -10 -21 0 -11 -4 -17 -10 -14 -5 3 -10 -3 -10 -14
0 -27 -46 -56 -82 -52 -15 1 -28 -2 -28 -8 0 -5 -9 -8 -20 -6 -11 2 -18 0 -15
-6 4 -5 3 -9 -2 -9 -4 0 -17 -12 -27 -27 -11 -14 -14 -23 -8 -19 16 9 15 1 -1
-16 -6 -8 -18 -24 -25 -36 -10 -18 -10 -22 0 -22 10 0 10 -2 0 -8 -15 -10 -24
-42 -28 -97 -1 -22 -3 -42 -5 -45 -1 -3 -1 -8 -1 -11 1 -3 2 -28 3 -55 1 -27
6 -53 10 -59 7 -10 9 -16 9 -37 0 -10 2 -10 9 0 6 10 10 9 14 -7 3 -12 2 -21
-3 -21 -4 0 -10 -9 -13 -20 -3 -11 -1 -20 5 -20 5 0 3 -6 -5 -14 -8 -8 -12
-29 -11 -50 2 -22 -1 -34 -6 -31 -6 4 -10 1 -10 -5 0 -7 -7 -10 -15 -7 -8 4
-17 2 -20 -3 -3 -5 -12 -7 -20 -3 -9 3 -15 -1 -15 -8 0 -12 -2 -12 -9 0 -5 8
-11 9 -15 3 -3 -6 -18 -9 -31 -6 -15 3 -25 0 -25 -7 0 -6 -7 -8 -16 -5 -8 3
-12 2 -9 -4 3 -6 3 -10 -2 -10 -13 0 -7 -111 7 -120 15 -10 15 -21 -2 -31 -8
-6 -9 -9 -1 -9 6 0 10 -8 8 -17 -1 -10 0 -22 4 -28 3 -5 6 -18 7 -27 1 -10 2
-19 3 -20 2 -2 4 -14 6 -28 8 -45 11 -55 24 -79 11 -19 11 -22 -1 -16 -10 6
-10 5 -1 -5 6 -7 9 -19 6 -28 -5 -11 -3 -13 7 -7 10 6 12 4 6 -10 -4 -11 -2
-22 6 -27 11 -6 11 -8 0 -8 -9 0 -10 -5 -3 -19 6 -10 7 -21 3 -25 -3 -4 0 -11
7 -15 10 -7 10 -13 2 -29 -6 -12 -7 -23 -2 -26 11 -7 9 -25 -3 -45 -7 -10 -5
-12 5 -7 8 4 3 -2 -10 -13 -14 -13 -18 -21 -10 -21 8 0 4 -9 -11 -21 -14 -11
-18 -17 -10 -13 12 6 12 4 -1 -12 -16 -18 -35 -80 -31 -97 1 -4 -4 -10 -12
-13 -9 -4 -13 -15 -10 -31 4 -20 2 -24 -11 -19 -10 4 -14 2 -9 -5 4 -6 0 -15
-7 -20 -12 -7 -12 -9 0 -9 10 0 11 -3 2 -14 -7 -8 -13 -34 -14 -59 -1 -25 -5
-43 -9 -40 -12 6 -10 -25 3 -48 7 -14 16 -18 27 -14 14 5 15 4 5 -6 -14 -14
-17 -30 -5 -28 20 3 32 -2 26 -12 -4 -8 0 -9 15 -4 17 5 20 3 14 -12 -6 -15
-4 -16 9 -5 13 10 17 10 21 -2 3 -8 14 -13 24 -12 10 2 24 -4 31 -13 8 -9 10
-10 6 -2 -4 9 -3 12 4 8 5 -4 9 -15 7 -25 -2 -9 -4 -21 -4 -25 -1 -5 -7 -5
-13 -1 -9 5 -9 2 1 -9 8 -11 9 -17 2 -17 -6 0 -13 -11 -17 -25 -3 -14 -10 -25
-15 -25 -5 0 -9 -7 -9 -15 0 -8 -4 -15 -9 -15 -5 0 -8 -8 -7 -17 2 -10 -1 -21
-6 -24 -5 -3 -10 -12 -11 -20 -2 -8 -7 -21 -12 -29 -5 -8 -10 -21 -11 -27 -1
-7 -9 -20 -18 -29 -9 -8 -14 -20 -11 -25 3 -4 -1 -19 -9 -31 -8 -13 -16 -26
-16 -30 -6 -32 -13 -47 -20 -43 -5 3 -7 -6 -6 -19 2 -14 -3 -27 -11 -30 -8 -3
-12 -10 -8 -15 3 -5 1 -13 -5 -16 -8 -5 -7 -12 2 -23 7 -10 9 -14 4 -10 -4 4
-14 1 -21 -5 -10 -9 -10 -15 -1 -26 8 -12 8 -13 -2 -7 -11 7 -16 -6 -15 -42 1
-6 -5 -12 -12 -12 -7 0 -11 -10 -10 -25 2 -14 -2 -25 -8 -25 -5 0 -7 -3 -4 -7
4 -3 3 -11 -2 -17 -5 -6 -14 -37 -21 -68 -6 -32 -16 -60 -21 -64 -6 -4 -6 -11
2 -20 10 -12 443 -14 3025 -14 l3014 0 0 116 c0 99 -3 119 -17 131 -10 8 -13
12 -6 9 6 -4 15 -2 18 4 4 6 3 10 -2 9 -20 -3 -34 2 -28 11 3 6 1 10 -6 10 -7
0 -10 3 -7 6 4 3 -18 30 -48 60 -30 31 -54 60 -54 65 0 6 -5 7 -12 3 -8 -5 -9
-2 -5 9 4 11 1 17 -7 17 -7 0 -18 12 -24 26 -7 14 -16 22 -22 19 -5 -3 -18 7
-27 23 -18 28 -22 32 -43 32 -6 0 -9 4 -8 9 2 5 -6 17 -17 26 -11 9 -13 13 -5
9 13 -7 13 -6 0 12 -8 10 -28 32 -45 48 -16 16 -24 26 -17 22 6 -4 12 -2 12 3
0 6 -7 11 -16 11 -8 0 -13 4 -9 10 3 5 -3 18 -15 30 -11 11 -20 27 -20 36 0 8
-4 12 -10 9 -5 -3 -10 3 -10 14 0 13 -7 21 -17 21 -15 0 -16 2 -3 10 12 8 12
10 -5 10 -17 0 -17 2 -5 10 10 6 11 10 3 10 -7 0 -13 9 -13 21 0 13 -4 18 -12
13 -8 -5 -9 -2 -5 9 3 10 2 17 -4 17 -6 0 -7 5 -4 10 3 6 2 10 -3 10 -5 0 -9
7 -9 15 0 10 4 12 10 6 6 -6 19 -1 35 14 14 13 30 21 35 18 5 -3 4 3 -1 14 -9
15 -8 20 3 20 8 0 11 -5 8 -11 -4 -6 0 -5 8 1 19 15 159 14 159 -1 0 -5 7 -1
16 10 15 18 15 18 10 0 -6 -16 -4 -17 9 -6 8 7 21 10 28 7 8 -3 20 -1 28 3 8
5 19 4 26 -2 10 -8 13 -7 13 3 0 11 2 11 10 -1 5 -8 12 -11 15 -8 4 4 18 3 31
-2 16 -6 24 -6 24 1 0 6 7 4 15 -5 9 -8 22 -13 30 -10 12 5 15 28 15 116 0 70
-4 107 -10 103 -5 -3 -10 -2 -10 4 0 7 -8 7 -25 1 -17 -7 -25 -6 -25 1 0 8 -5
8 -15 -1 -8 -6 -19 -9 -25 -5 -5 3 -10 1 -10 -6 0 -8 -4 -8 -15 1 -12 10 -15
10 -15 0 0 -9 -4 -9 -13 -2 -8 7 -18 7 -27 2 -8 -5 -22 -4 -33 2 -14 7 -17 7
-13 -1 7 -10 -11 -9 -76 4 -10 2 -18 -2 -18 -7 0 -6 -8 -4 -17 4 -10 9 -23 14
-29 11 -6 -2 -11 9 -12 27 0 17 -7 39 -14 48 -11 13 -11 14 0 8 11 -7 11 -4 1
12 -7 12 -18 18 -24 14 -5 -3 -4 1 3 10 9 11 10 18 2 23 -6 3 -7 11 -4 17 4 7
2 8 -5 4 -7 -4 -15 2 -20 16 -6 13 -10 19 -10 13 -1 -5 -8 1 -17 13 -8 12 -19
20 -24 17 -13 -8 -17 25 -8 75 5 25 6 50 4 57 -3 6 -1 13 4 15 5 2 10 10 12
18 2 8 6 17 10 20 3 3 8 19 11 35 2 17 7 38 11 47 5 10 6 25 2 33 -3 8 -2 15
3 15 13 0 20 36 10 51 -4 7 -3 21 2 31 7 13 6 18 -2 18 -8 0 -8 4 1 15 10 12
10 15 -1 15 -10 0 -10 3 -1 12 14 14 16 32 3 24 -5 -3 -6 8 -1 27 4 18 4 41 0
52 -5 13 -1 24 9 33 14 11 14 11 -2 6 -13 -5 -16 -2 -11 9 3 8 0 18 -5 22 -6
3 -9 9 -7 13 2 4 -15 7 -37 7 -23 -1 -48 4 -56 10 -11 7 -13 7 -8 -1 3 -6 0
-11 -8 -11 -8 0 -12 4 -9 9 5 8 -16 12 -50 8 -12 -1 -16 3 -11 10 4 7 1 16 -6
21 -11 6 -11 9 -1 9 9 0 8 6 -3 24 -13 19 -13 25 -3 29 11 4 11 6 0 6 -7 1
-10 6 -7 11 3 5 2 10 -3 10 -6 0 -13 7 -16 16 -3 8 -2 13 3 10 8 -5 22 18 22
34 0 3 8 13 17 23 15 17 15 17 -2 11 -16 -6 -17 -4 -7 14 20 38 22 111 3 122
-10 5 -12 10 -5 10 15 0 13 21 -2 33 -6 6 -5 10 3 14 10 4 8 9 -5 21 -10 10
-19 30 -21 46 -2 16 -10 35 -18 43 -8 8 -14 21 -14 29 0 8 -7 14 -16 14 -11 0
-15 6 -11 20 3 11 0 20 -6 21 -27 2 -50 8 -56 16 -3 4 -15 9 -26 11 -58 8 -67
10 -78 22 -9 10 -9 11 3 6 8 -4 6 0 -4 8 -11 9 -17 16 -13 16 4 0 2 10 -5 23
-7 12 -11 25 -10 30 1 4 -5 7 -13 7 -8 0 -14 3 -14 8 4 26 -3 44 -15 39 -10
-4 -13 -1 -10 8 3 8 -1 22 -10 31 -9 8 -14 19 -11 24 3 5 0 10 -5 12 -10 3
-16 21 -19 51 -1 4 -8 7 -16 7 -13 0 -17 6 -14 26 0 3 -9 14 -21 24 -15 13
-17 19 -8 23 8 4 7 6 -4 6 -11 1 -15 6 -12 16 7 17 -20 47 -32 37 -5 -4 -2 1
5 11 12 15 11 17 -3 17 -10 0 -14 5 -11 11 4 6 -1 16 -11 24 -11 7 -16 16 -12
20 8 8 -23 46 -33 39 -4 -2 -5 6 -1 18 3 14 1 19 -6 14 -6 -3 -14 3 -17 15 -4
13 -12 18 -21 15 -9 -3 -12 -1 -9 5 4 5 1 16 -5 24 -6 8 -8 20 -4 27 6 9 3 9
-10 -1 -9 -8 -16 -10 -15 -5 4 22 -2 33 -16 28 -8 -4 -15 -1 -15 6 0 7 -17 28
-37 48 -21 19 -30 32 -21 29 9 -3 19 0 22 9 3 8 12 14 21 14 8 0 15 5 15 11 0
5 5 7 10 4 6 -4 9 -3 8 2 -4 11 39 53 54 53 6 0 9 3 5 6 -3 4 0 13 8 20 14 15
10 44 -6 44 -4 0 -5 7 -2 17 4 10 2 14 -4 10 -6 -4 -14 0 -17 9 -3 8 -10 12
-16 9 -5 -3 -10 -1 -10 5 0 6 -5 8 -12 4 -6 -4 -8 -3 -5 3 4 6 -4 19 -18 29
-13 10 -21 22 -18 27 3 6 2 7 -4 4 -13 -8 -65 27 -56 38 5 4 3 6 -2 2 -15 -8
-76 23 -68 36 3 6 1 7 -6 3 -6 -4 -18 -2 -26 4 -12 10 -15 10 -15 -1 -1 -10
-5 -8 -14 4 -8 10 -21 20 -29 21 -8 1 -23 8 -33 16 -11 9 -15 10 -10 3 4 -7 3
-13 -2 -13 -6 0 -13 7 -16 16 -5 13 -9 14 -21 4 -11 -9 -15 -9 -15 -1 0 7 -4
9 -10 6 -6 -3 -10 -1 -10 4 0 6 -5 11 -11 11 -5 0 -7 -4 -4 -10 3 -6 -1 -7 -9
-4 -10 4 -16 1 -16 -7 0 -7 -3 -9 -6 -6 -4 4 -2 13 5 21 9 11 8 15 -4 20 -9 3
-13 2 -10 -3 3 -5 1 -13 -5 -16 -6 -4 -10 -3 -9 2 3 20 -2 34 -11 28 -5 -3 -7
-12 -4 -19 3 -8 0 -17 -7 -22 -8 -4 -10 -3 -5 5 4 6 2 19 -6 28 -11 14 -11 16
1 8 9 -5 12 -4 8 2 -4 6 -19 8 -33 5 -18 -3 -25 -1 -20 6 4 6 -4 9 -21 7 -16
-2 -32 0 -38 4 -5 4 -23 8 -38 9 -15 1 -37 7 -49 13 -15 8 -19 8 -14 0 4 -6 2
-11 -3 -11 -6 0 -11 6 -11 13 0 9 -2 9 -9 -1 -6 -11 -11 -10 -25 3 -9 9 -16
12 -16 6 0 -6 -11 -6 -30 -1 -19 5 -30 5 -30 -1 0 -6 -8 -5 -20 1 -15 8 -20 8
-20 -2 0 -9 -3 -9 -10 2 -9 13 -10 13 -10 0 0 -13 -1 -13 -10 0 -9 13 -10 13
-10 0 0 -9 -3 -11 -8 -5 -4 6 -31 10 -59 10 -48 1 -52 -1 -47 -20 4 -15 3 -17
-5 -5 -5 8 -8 39 -8 68 1 29 -2 52 -8 52 -5 0 -3 5 5 10 13 9 13 11 0 20 -8 5
-10 10 -5 10 6 0 3 5 -5 10 -13 8 -13 10 0 10 11 0 11 3 2 12 -14 14 -16 32
-4 24 10 -6 9 30 -1 40 -3 4 -2 15 3 25 7 12 7 20 0 24 -7 4 -7 13 0 24 6 12
5 22 -2 29 -9 9 -8 12 3 12 12 0 12 2 -1 10 -9 6 -10 10 -3 10 6 0 15 -5 19
-12 5 -7 11 -5 21 7 7 11 13 16 13 12 0 -4 14 -1 30 8 17 9 30 20 30 25 0 6 6
9 13 8 7 -2 12 6 11 19 -1 13 2 20 7 18 8 -6 24 52 20 75 -2 8 -4 20 -4 25 -1
6 3 9 10 8 7 -2 10 4 7 12 -4 8 -11 12 -18 8 -6 -4 -4 2 4 12 9 11 10 16 3 11
-8 -4 -13 -2 -13 8 0 8 6 17 13 19 7 3 4 6 -7 6 -10 1 -16 6 -13 14 3 8 -4 14
-16 15 -18 1 -19 -1 -7 -9 13 -9 13 -10 0 -6 -8 2 -15 9 -15 15 0 6 -8 21 -18
32 -14 17 -21 19 -40 10 -19 -10 -20 -9 -6 2 14 11 14 15 3 26 -11 10 -14 10
-14 0 0 -9 -3 -10 -8 -2 -4 6 -15 10 -25 8 -15 -2 -18 2 -13 21 3 13 3 26 -2
28 -4 3 -7 31 -6 62 1 46 -2 55 -14 50 -11 -4 -12 -2 -4 7 6 7 10 17 10 23 0
5 6 11 13 14 6 2 9 -1 5 -7 -5 -9 1 -9 33 -3 2 1 -2 8 -9 16 -7 8 -8 15 -3 15
7 0 8 15 3 40 -4 22 -4 40 0 40 3 0 4 23 0 50 -4 28 -4 50 -1 50 3 0 4 36 1
80 -3 44 -3 80 0 80 3 0 6 9 6 20 0 11 -4 20 -9 20 -4 0 -5 5 -1 11 11 19 10
229 -1 229 -5 0 -4 4 4 9 11 7 11 9 0 13 -12 4 -12 8 1 22 16 20 23 49 9 40
-5 -3 -7 5 -5 18 3 13 5 25 5 28 1 3 6 -2 11 -10 6 -9 10 -10 10 -3 0 6 -5 15
-10 18 -6 4 -8 11 -5 16 4 5 1 9 -5 9 -7 0 -9 -7 -6 -16 4 -10 2 -13 -6 -8 -6
4 -8 3 -5 -2 3 -6 -4 -11 -16 -11 -22 -2 -22 -2 -2 13 17 13 18 16 5 25 -13 9
-12 10 3 5 12 -4 17 0 17 15 0 11 4 18 8 15 5 -3 8 10 7 29 -2 21 2 35 9 35 7
0 6 3 -2 9 -10 6 -10 10 3 21 10 8 15 9 15 1 0 -9 29 -10 71 -2 3 0 24 15 45
32 25 20 38 37 36 50 -2 10 1 19 6 19 6 0 9 8 7 18 -1 9 2 26 8 37 18 33 15
108 -5 126 -10 9 -16 18 -14 20 2 2 -2 10 -10 17 -11 10 -14 10 -14 0 -1 -7
-10 6 -21 29 -10 23 -29 47 -40 54 -12 6 -18 17 -15 25 3 8 2 12 -3 9 -5 -3
-12 -1 -16 4 -3 6 -13 7 -22 4 -12 -5 -15 -2 -11 9 5 11 0 14 -18 12 -14 -1
-24 3 -24 11 0 7 -10 15 -22 19 -38 10 -1616 7 -1623 -3z m1725 -72 c0 -4 -9
-7 -19 -6 -11 0 -18 4 -16 7 6 9 35 8 35 -1z m-1920 -9 c0 -5 -5 -10 -11 -10
-5 0 -7 5 -4 10 3 6 8 10 11 10 2 0 4 -4 4 -10z m1960 -24 c0 -2 -7 -6 -15
-10 -8 -3 -15 -1 -15 4 0 6 7 10 15 10 8 0 15 -2 15 -4z m-122 -409 c4 2 7
-11 7 -29 -1 -39 -15 -46 -34 -16 -13 21 -13 22 3 9 14 -12 16 -11 13 5 -2 11
-9 30 -16 44 -12 24 -11 24 4 5 9 -11 19 -19 23 -18z m-1 -163 c-3 -3 -12 -4
-19 -1 -8 3 -5 6 6 6 11 1 17 -2 13 -5z m3 -29 c7 -9 8 -15 2 -15 -5 0 -12 7
-16 15 -3 8 -4 15 -2 15 2 0 9 -7 16 -15z m-5 -953 c-3 -3 -11 0 -18 7 -9 10
-8 11 6 5 10 -3 15 -9 12 -12z m55 -26 c0 -2 -7 -7 -16 -10 -8 -3 -12 -2 -9 4
6 10 25 14 25 6z m600 -801 c0 -7 -30 -13 -34 -7 -3 4 4 9 15 9 10 1 19 0 19
-2z m50 -19 c0 -2 -7 -7 -16 -10 -8 -3 -12 -2 -9 4 6 10 25 14 25 6z m-3645
-2594 c-3 -3 -11 0 -18 7 -9 10 -8 11 6 5 10 -3 15 -9 12 -12z m42 -87 c0 -8
-4 -12 -9 -9 -5 3 -6 10 -3 15 9 13 12 11 12 -6z m4853 5 c0 -5 -5 -10 -11
-10 -5 0 -7 5 -4 10 3 6 8 10 11 10 2 0 4 -4 4 -10z"/>
</g>
</svg>
