<?xml version="1.0" standalone="no"?>
<!DOCTYPE svg PUBLIC "-//W3C//DTD SVG 20010904//EN"
 "http://www.w3.org/TR/2001/REC-SVG-20010904/DTD/svg10.dtd">
<svg version="1.0" xmlns="http://www.w3.org/2000/svg"
 width="640.000000pt" height="640.000000pt" viewBox="0 0 640.000000 640.000000"
 preserveAspectRatio="xMidYMid meet">
<metadata>
Created by potrace 1.14, written by Peter Selinger 2001-2017
</metadata>
<g transform="translate(0.000000,640.000000) scale(0.100000,-0.100000)"
fill="#000000" stroke="none">
<path d="M0 3200 l0 -3200 3200 0 3200 0 0 3200 0 3200 -3200 0 -3200 0 0
-3200z m3494 3142 c16 -18 29 -98 19 -115 -3 -5 -19 8 -36 28 -18 19 -50 44
-72 54 -27 13 -35 21 -25 25 16 6 81 24 91 25 3 1 13 -7 23 -17z m-466 -55
c18 -14 16 -107 -3 -107 -8 0 -15 6 -15 13 0 8 -10 22 -21 33 -28 25 -43 65
-28 74 13 9 48 2 67 -13z m1136 -3 c9 -8 16 -17 16 -19 0 -8 -41 9 -51 21 -17
20 15 19 35 -2z m-1856 -41 c4 -25 -16 -31 -36 -11 -20 20 -14 40 11 36 14 -2
23 -11 25 -25z m256 8 c27 -30 9 -47 -20 -20 -13 12 -21 26 -18 30 8 14 19 11
38 -10z m1364 -87 l3 -52 -41 39 c-44 42 -49 55 -22 62 46 13 57 4 60 -49z
m-31 -566 c-3 -7 -5 -2 -5 12 0 14 2 19 5 13 2 -7 2 -19 0 -25z m-1180 -105
c-2 -16 -4 -3 -4 27 0 30 2 43 4 28 2 -16 2 -40 0 -55z m1196 -65 c3 -72 1
-128 -4 -128 -5 0 -9 62 -8 138 1 166 6 162 12 -10z m-596 70 c-2 -13 -4 -3
-4 22 0 25 2 35 4 23 2 -13 2 -33 0 -45z m3 -92 c0 -25 -4 -48 -10 -51 -6 -4
-10 13 -10 44 0 28 5 51 10 51 6 0 10 -20 10 -44z m-608 -1 c-2 -19 -6 -35 -8
-35 -2 0 -4 16 -4 35 0 19 4 35 8 35 4 0 6 -16 4 -35z m-327 -185 l7 -180 42
5 41 6 -49 -21 c-27 -11 -51 -18 -55 -15 -10 11 -13 398 -3 391 5 -3 13 -87
17 -186z m1501 -135 c21 -9 60 -23 87 -31 59 -19 63 -39 6 -29 -40 7 -68 17
-154 55 -22 9 -47 20 -55 23 -8 4 6 5 31 3 25 -2 63 -12 85 -21z m-788 -228
c6 -7 7 -26 3 -47 -6 -31 -10 -35 -36 -32 -48 5 -85 30 -85 57 0 17 7 25 23
28 46 9 85 7 95 -6z m607 -27 c0 -43 -21 -50 -76 -24 -30 13 -39 23 -39 41 0
23 3 24 58 21 l57 -3 0 -35z m462 -125 c9 -25 -4 -29 -17 -6 -7 15 -7 21 0 21
6 0 13 -7 17 -15z m-1907 -4 c0 -12 -20 -25 -27 -18 -7 7 6 27 18 27 5 0 9 -4
9 -9z m-60 -40 c0 -6 -4 -13 -10 -16 -5 -3 -10 1 -10 9 0 9 5 16 10 16 6 0 10
-4 10 -9z m2020 -11 c0 -5 -4 -10 -10 -10 -5 0 -10 5 -10 10 0 6 5 10 10 10 6
0 10 -4 10 -10z m-1818 -330 c3 -100 9 -184 13 -188 12 -12 136 -4 200 12 106
28 113 15 10 -20 -89 -30 -147 -45 -237 -61 -28 -5 -28 -5 -23 38 7 64 14 211
15 312 0 159 17 90 22 -93z m262 95 c17 -26 74 -55 107 -55 11 0 19 -4 19 -10
0 -5 -20 -10 -45 -10 -36 0 -52 6 -72 26 l-27 27 -23 -27 -23 -28 -20 24 c-11
13 -19 25 -20 28 0 5 71 49 81 50 4 0 14 -11 23 -25z m1254 1 c7 -8 -47 -76
-61 -76 -7 1 -23 10 -36 21 l-24 20 27 28 c24 25 32 28 58 20 17 -4 33 -11 36
-13z m-133 -66 c-3 -5 -14 -10 -23 -10 -15 0 -15 2 -2 10 20 13 33 13 25 0z
m235 -226 c0 -78 -2 -85 -17 -79 -10 4 -47 11 -83 17 -59 9 -120 31 -120 43 0
3 33 2 73 -1 94 -8 114 1 123 61 11 74 24 51 24 -41z m-2233 -225 c-61 -31
-156 -52 -143 -31 4 7 12 12 17 12 6 0 29 9 52 19 49 22 72 28 107 29 19 1 11
-6 -33 -29z m2153 6 c-7 -9 -15 -13 -17 -11 -7 7 7 26 19 26 6 0 6 -6 -2 -15z
m785 -24 c27 -10 51 -23 53 -29 5 -16 -65 -3 -123 23 -105 46 -47 51 70 6z
m-2215 9 c0 -5 -7 -7 -15 -4 -8 4 -15 8 -15 10 0 2 7 4 15 4 8 0 15 -4 15 -10z
m1400 -3 c0 -1 -26 -27 -57 -57 -55 -52 -52 -47 12 28 24 27 45 41 45 29z
m-1318 -64 c30 -29 37 -46 15 -37 -16 6 -61 64 -50 64 4 0 20 -12 35 -27z
m106 -169 c4 -27 -18 -45 -46 -37 -40 10 -19 67 23 61 11 -2 21 -12 23 -24z
m1078 12 c25 -19 8 -50 -30 -54 -34 -4 -45 22 -21 48 22 24 25 24 51 6z
m-2406 -355 c0 -10 -30 -24 -37 -17 -3 3 -2 9 2 15 8 13 35 15 35 2z m3758 -8
c2 -8 -5 -13 -17 -13 -21 0 -35 13 -24 24 10 10 36 3 41 -11z m-3838 -153 c17
-11 16 -12 -30 -28 -40 -14 -59 -2 -35 22 18 18 43 20 65 6z m3951 -16 l24
-27 -40 8 c-45 8 -55 12 -55 25 0 7 13 13 41 19 3 0 16 -11 30 -25z m-4013
-144 c28 0 9 -18 -30 -29 -24 -7 -49 -15 -55 -17 -20 -9 -15 14 8 37 14 14 28
19 42 15 12 -3 28 -6 35 -6z m4106 -22 c5 -9 8 -19 5 -22 -9 -10 -99 25 -93
35 9 16 76 6 88 -13z m-4156 -119 c-4 -11 -110 -51 -117 -44 -2 3 4 16 13 30
14 21 24 25 62 25 28 0 44 -4 42 -11z m4226 -11 c20 -28 14 -33 -21 -20 -15 6
-40 13 -55 16 -43 10 -33 26 16 26 35 0 48 -5 60 -22z m-2046 -39 c3 -33 0
-37 -25 -42 -37 -7 -43 -2 -43 37 0 40 7 48 40 44 21 -3 25 -9 28 -39z m-528
-24 l0 -55 -45 0 -45 0 0 55 0 55 45 0 45 0 0 -55z m-1752 -103 c2 -6 -5 -15
-15 -18 -10 -3 -34 -14 -54 -25 -53 -28 -69 1 -25 45 19 20 29 23 56 17 19 -3
35 -12 38 -19z m4429 16 c16 -20 25 -68 13 -68 -18 0 -110 50 -110 59 0 19 84
26 97 9z m-2482 -138 l0 -55 -50 0 -50 0 -3 44 c-5 66 1 73 55 69 l48 -3 0
-55z m321 50 c12 0 14 -11 12 -47 -3 -46 -4 -48 -35 -51 l-33 -3 0 49 c0 53 6
66 28 57 7 -3 20 -5 28 -5z m2219 -71 c10 -16 -1 -22 -26 -14 -17 6 -19 9 -8
16 19 12 26 11 34 -2z m-4607 -11 c-6 -18 -28 -21 -28 -4 0 9 7 16 16 16 9 0
14 -5 12 -12z m4687 -98 c10 -11 16 -23 12 -26 -7 -7 -57 25 -57 37 0 16 26 9
45 -11z m-4745 2 c0 -11 -60 -55 -67 -48 -3 2 6 16 20 30 26 26 47 34 47 18z
m4574 -387 c-10 -8 -24 -15 -30 -15 -22 0 -142 -43 -211 -76 -70 -33 -73 -35
-73 -69 0 -46 -16 -45 -29 1 -10 37 2 64 29 64 6 0 34 12 63 26 29 15 75 33
102 40 28 7 73 19 100 27 65 20 73 20 49 2z m-4329 -20 c101 -24 207 -65 231
-89 19 -19 20 -24 9 -61 l-13 -40 -7 43 c-8 47 -14 52 -125 95 -74 29 -117 43
-177 57 -24 6 -43 13 -43 17 0 6 31 1 125 -22z m1658 -335 l-6 -240 214 -2
c120 -2 46 -4 -170 -5 -381 -2 -384 -2 -407 -24 -13 -13 -24 -18 -24 -12 0 5
8 17 18 26 14 13 46 17 162 19 l145 3 6 90 c4 50 12 131 18 180 6 50 14 116
18 148 4 36 10 57 18 57 10 0 12 -50 8 -240z m649 -172 c-2 -194 -8 -357 -13
-362 -6 -6 -13 -6 -21 2 -11 11 -8 143 17 643 1 40 10 69 19 69 2 0 1 -159 -2
-352z m904 255 c-3 -42 -6 -197 -6 -345 l0 -268 -22 0 -23 0 3 222 c1 123 7
245 12 271 6 26 10 74 10 107 0 64 7 90 23 90 6 0 8 -26 3 -77z m510 -415 c-3
-29 -6 -86 -6 -125 0 -61 -3 -73 -16 -73 -14 0 -15 10 -9 78 8 72 9 91 13 150
1 12 7 22 13 22 8 0 10 -16 5 -52z m314 -23 c-16 -42 -24 -22 -9 22 7 21 14
31 16 22 2 -8 -1 -28 -7 -44z m-4046 -10 c20 -9 40 -26 45 -38 22 -58 30 -91
25 -99 -9 -14 -32 11 -39 43 -4 16 -22 46 -41 66 -47 49 -46 51 10 28z m4292
-15 c-14 -17 -30 -48 -36 -69 -5 -21 -18 -45 -27 -52 -15 -13 -16 -9 -10 40 6
55 26 87 62 102 35 14 37 10 11 -21z m-4077 -32 c5 -13 12 -34 16 -48 7 -25 7
-25 -8 -4 -17 23 -33 74 -23 74 4 0 10 -10 15 -22z m1073 -341 c2 -48 0 -87
-4 -87 -5 0 -7 57 -6 128 2 130 6 115 10 -41z m1027 -157 c-3 -417 -23 -379
-36 68 l-6 222 22 0 22 0 -2 -290z m897 274 c-3 -9 -6 -113 -7 -232 -1 -153
-4 -207 -10 -182 -10 36 -27 418 -20 426 2 2 13 4 24 4 13 0 17 -5 13 -16z
m514 -147 c0 -90 -3 -213 -7 -273 -10 -165 -22 -86 -30 199 l-6 237 22 0 c21
0 21 -3 21 -163z m-1962 36 c-10 -2 -28 -2 -40 0 -13 2 -5 4 17 4 22 1 32 -1
23 -4z m85 0 c-13 -2 -33 -2 -45 0 -13 2 -3 4 22 4 25 0 35 -2 23 -4z m-183
-142 c-6 -12 -10 -96 -10 -205 0 -171 -10 -242 -23 -163 -15 84 -39 357 -34
371 4 11 19 16 42 16 32 0 35 -2 25 -19z"/>
</g>
</svg>
